<?xml version="1.0" standalone="no"?>
<!DOCTYPE svg PUBLIC "-//W3C//DTD SVG 20010904//EN"
 "http://www.w3.org/TR/2001/REC-SVG-20010904/DTD/svg10.dtd">
<svg version="1.0" xmlns="http://www.w3.org/2000/svg"
 width="439.000000pt" height="439.000000pt" viewBox="0 0 439.000000 439.000000"
 preserveAspectRatio="xMidYMid meet">
<metadata>
Created by potrace 1.11, written by Peter Selinger 2001-2013
</metadata>
<g transform="translate(0.000000,439.000000) scale(0.100000,-0.100000)"
fill="#000000" stroke="none">
<path d="M1980 4185 c-232 -33 -427 -92 -620 -186 -110 -54 -279 -156 -336
-202 -10 -9 -39 -32 -64 -52 -90 -74 -228 -213 -290 -295 -19 -25 -37 -47 -41
-50 -17 -14 -132 -199 -178 -288 -109 -212 -164 -392 -210 -687 -10 -63 -7
-411 4 -480 3 -22 15 -89 27 -150 12 -60 21 -116 21 -122 0 -7 3 -13 7 -13 7
0 9 -9 12 -55 1 -14 6 -25 11 -25 5 0 7 -6 4 -12 -2 -7 2 -28 9 -46 7 -17 10
-32 7 -32 -3 0 0 -7 7 -15 7 -8 9 -15 6 -15 -4 0 0 -10 8 -22 18 -26 21 -42 6
-33 -6 4 -17 1 -25 -5 -12 -10 -15 -10 -15 0 0 8 -3 11 -6 7 -3 -3 -3 -11 1
-17 5 -8 11 -8 21 1 8 6 18 8 22 4 4 -4 1 -10 -5 -12 -7 -3 -13 -9 -13 -14 0
-6 4 -7 10 -4 14 9 12 -19 -2 -33 -9 -9 -9 -12 -1 -12 11 0 25 29 22 46 -5 27
4 25 16 -5 18 -40 19 -61 4 -61 -6 0 -9 9 -6 20 3 11 1 18 -4 14 -13 -8 -11
-31 6 -47 8 -8 12 -17 9 -20 -3 -3 4 -11 16 -17 12 -6 24 -9 27 -7 2 3 -4 8
-15 11 -14 5 -19 14 -17 32 1 13 6 28 10 32 5 4 6 0 2 -9 -3 -9 0 -22 6 -28 6
-6 7 -11 2 -11 -5 0 0 -6 11 -14 15 -12 16 -17 7 -27 -10 -10 -15 -9 -28 1 -8
7 -18 10 -22 6 -3 -3 -1 -6 6 -6 7 0 10 -4 7 -9 -3 -4 8 -8 25 -7 36 1 71 -35
48 -50 -8 -5 -9 -3 -4 5 5 9 1 9 -14 -1 -12 -7 -21 -20 -21 -28 0 -13 2 -13 9
-1 5 8 20 16 32 18 19 3 21 1 11 -9 -15 -15 -16 -28 -1 -28 5 0 7 4 4 10 -3 5
-2 10 3 10 15 0 23 -28 10 -36 -7 -5 -8 -2 -3 6 5 9 4 11 -4 6 -9 -6 -9 -11 0
-22 13 -16 23 -19 14 -4 -10 17 12 11 26 -7 8 -9 9 -14 4 -11 -6 4 -17 2 -25
-3 -13 -9 -13 -10 0 -8 30 3 40 -1 40 -17 0 -14 -3 -14 -15 -4 -9 7 -18 10
-22 6 -3 -3 0 -6 8 -6 12 0 11 -2 -1 -10 -11 -7 -9 -9 10 -8 14 1 28 7 32 13
5 5 8 1 8 -11 0 -11 -6 -26 -13 -33 -9 -11 -9 -13 1 -7 6 4 13 2 13 -3 1 -6 3
-15 4 -21 1 -5 3 -13 4 -16 0 -4 8 -1 16 6 8 6 19 9 25 5 16 -10 12 -33 -7
-44 -10 -6 -14 -11 -9 -11 5 0 17 7 26 15 14 13 17 12 28 -6 12 -19 11 -20 -9
-14 -14 5 -19 4 -15 -4 4 -6 17 -11 30 -11 25 0 91 -65 81 -80 -3 -5 1 -7 9
-4 9 3 20 -3 28 -15 7 -12 18 -21 24 -21 6 0 28 -15 47 -32 20 -18 51 -44 68
-58 18 -14 37 -30 43 -35 51 -48 250 -171 371 -231 391 -192 844 -251 1271
-164 484 98 937 388 1217 780 26 36 51 70 56 76 50 62 177 322 222 454 80 241
104 389 104 650 0 174 -7 262 -30 370 -8 37 -16 77 -19 90 -3 14 -7 34 -10 46
-5 26 -41 142 -52 168 -6 15 -4 18 7 12 8 -4 6 -1 -3 7 -10 8 -15 17 -11 20 3
4 2 7 -4 7 -6 0 -13 9 -16 20 -3 13 -1 18 6 14 7 -3 4 1 -5 9 -18 14 -25 33
-10 23 4 -2 8 5 9 17 0 12 -1 16 -4 10 -3 -7 -9 -13 -14 -13 -4 0 -5 7 -2 17
4 11 3 14 -5 9 -8 -5 -12 0 -12 13 0 12 -4 21 -10 21 -5 0 -10 7 -10 15 0 8 4
15 8 15 5 0 17 7 28 16 18 15 18 15 -3 5 -33 -16 -42 -14 -55 17 -16 39 -18
53 -6 46 7 -4 8 -2 4 4 -4 6 -13 9 -21 5 -13 -5 -20 7 -16 30 0 4 -4 7 -10 7
-5 0 -7 5 -4 10 3 6 -1 13 -9 16 -9 3 -16 14 -16 25 0 10 -7 22 -16 27 -9 5
-15 12 -15 15 3 20 0 28 -8 22 -5 -3 -16 8 -24 25 -11 20 -12 32 -5 36 6 4 8
3 5 -2 -3 -5 3 -10 13 -10 16 0 13 6 -13 28 -18 15 -36 27 -42 27 -5 1 -3 -4
5 -10 13 -9 13 -10 0 -6 -8 2 -16 12 -16 23 -1 10 -2 25 -3 32 -1 6 -6 12 -12
12 -8 0 -8 -5 1 -15 16 -19 3 -20 -15 -1 -10 9 -11 16 -3 24 16 16 -4 43 -22
32 -13 -8 -12 -10 3 -10 9 0 17 -4 17 -10 0 -5 -6 -10 -14 -10 -17 0 -29 27
-19 43 4 7 0 7 -9 -1 -13 -10 -18 -10 -24 -1 -4 8 -3 9 4 5 7 -4 12 -2 12 3 0
6 -6 11 -13 11 -13 0 -87 70 -87 83 0 3 6 4 14 1 19 -7 27 8 14 26 -8 13 -9
12 -5 -1 9 -28 -39 -20 -69 12 -24 25 -25 31 -14 46 12 15 12 16 0 5 -11 -10
-20 -6 -48 20 -22 22 -31 27 -26 14 7 -18 6 -18 -19 -1 -15 9 -27 21 -27 26 0
5 -6 9 -13 9 -7 0 -22 8 -33 18 -38 35 -203 132 -314 186 -178 86 -378 146
-605 181 -78 13 -419 12 -505 0z m1875 -775 c3 -5 -1 -10 -10 -10 -9 0 -13 5
-10 10 3 6 8 10 10 10 2 0 7 -4 10 -10z m-3240 -2424 c12 -12 12 -16 -3 -27
-9 -7 -14 -10 -10 -5 4 5 3 17 -3 27 -12 22 -3 25 16 5z"/>
<path d="M3541 3786 c-9 -11 -9 -16 1 -22 7 -4 10 -4 6 1 -4 4 -3 14 3 22 6 7
9 13 6 13 -2 0 -10 -6 -16 -14z"/>
<path d="M3650 3731 c0 -6 4 -13 10 -16 6 -3 7 1 4 9 -7 18 -14 21 -14 7z"/>
<path d="M3660 3690 c8 -5 20 -10 25 -10 6 0 3 5 -5 10 -8 5 -19 10 -25 10 -5
0 -3 -5 5 -10z"/>
<path d="M3616 3673 c-6 -14 -5 -15 5 -6 7 7 10 15 7 18 -3 3 -9 -2 -12 -12z"/>
<path d="M3715 3660 c-4 -6 -12 -7 -18 -4 -7 4 -8 3 -4 -1 13 -15 34 -14 34 1
0 17 -4 18 -12 4z"/>
<path d="M3660 3630 c-12 -7 -10 -9 8 -7 12 0 22 5 22 9 0 11 -12 10 -30 -2z"/>
<path d="M3750 3630 c0 -5 5 -10 10 -10 6 0 10 5 10 10 0 6 -4 10 -10 10 -5 0
-10 -4 -10 -10z"/>
<path d="M3695 3610 c-4 -6 -12 -7 -18 -3 -7 4 -6 0 2 -10 13 -16 36 -14 26 3
-3 5 3 11 12 13 16 4 16 5 1 6 -9 0 -20 -4 -23 -9z"/>
<path d="M3725 3594 c-9 -9 -13 -19 -9 -23 4 -3 9 0 11 7 3 6 8 10 12 8 4 -3
8 1 8 9 0 19 -2 19 -22 -1z"/>
<path d="M3810 3589 c0 -5 5 -7 10 -4 6 3 10 8 10 11 0 2 -4 4 -10 4 -5 0 -10
-5 -10 -11z"/>
<path d="M3752 3571 c-11 -6 -10 -10 4 -15 9 -4 22 -2 28 4 8 8 6 9 -8 4 -13
-5 -17 -4 -12 4 8 14 6 15 -12 3z"/>
<path d="M3790 3540 c0 -5 5 -10 11 -10 5 0 7 5 4 10 -3 6 -8 10 -11 10 -2 0
-4 -4 -4 -10z"/>
<path d="M3829 3484 c6 -12 7 -25 3 -30 -4 -5 2 -2 13 6 30 21 31 23 15 18 -8
-3 -21 2 -28 11 -11 14 -12 13 -3 -5z"/>
<path d="M3890 3490 c0 -5 5 -10 11 -10 5 0 7 5 4 10 -3 6 -8 10 -11 10 -2 0
-4 -4 -4 -10z"/>
<path d="M3856 3451 c-3 -5 2 -15 12 -22 16 -13 16 -13 2 5 -14 18 -13 19 3
13 9 -3 17 -2 17 3 0 12 -27 13 -34 1z"/>
<path d="M3913 3440 c-1 -10 6 -25 15 -32 15 -12 16 -11 4 4 -8 9 -11 22 -8
27 4 5 3 12 -2 15 -4 2 -8 -4 -9 -14z"/>
<path d="M3890 3421 c0 -6 4 -13 10 -16 6 -3 7 1 4 9 -7 18 -14 21 -14 7z"/>
<path d="M3955 3410 c-3 -5 -1 -10 4 -10 6 0 11 5 11 10 0 6 -2 10 -4 10 -3 0
-8 -4 -11 -10z"/>
<path d="M3911 3385 c0 -5 3 -16 8 -23 7 -11 9 -10 14 3 4 9 3 14 -2 10 -5 -3
-12 1 -14 7 -3 7 -6 9 -6 3z"/>
<path d="M3877 3368 c7 -8 11 -17 8 -20 -3 -2 2 -5 10 -5 21 0 19 10 -7 26
-20 13 -22 12 -11 -1z"/>
<path d="M3920 3330 c-13 -8 -13 -10 2 -10 9 0 20 5 23 10 8 13 -5 13 -25 0z"/>
<path d="M3950 3310 c0 -5 7 -10 16 -10 9 0 12 -5 8 -12 -4 -7 -3 -8 4 -4 16
10 15 14 -8 26 -14 7 -20 7 -20 0z"/>
<path d="M3934 3293 c11 -13 16 -23 12 -23 -4 0 2 -12 13 -26 11 -15 18 -31
14 -37 -4 -6 0 -8 10 -4 10 4 22 -2 31 -15 l15 -21 -2 21 c0 11 -4 19 -7 17
-3 -2 -14 3 -25 11 -10 8 -15 14 -10 14 5 0 -1 7 -13 16 -12 8 -20 19 -17 23
2 5 -5 17 -18 27 l-22 19 19 -22z"/>
<path d="M3991 3264 c0 -11 3 -14 6 -6 3 7 2 16 -1 19 -3 4 -6 -2 -5 -13z"/>
<path d="M4050 3250 c0 -5 5 -10 11 -10 5 0 7 5 4 10 -3 6 -8 10 -11 10 -2 0
-4 -4 -4 -10z"/>
<path d="M4010 3230 c0 -5 5 -10 10 -10 6 0 10 5 10 10 0 6 -4 10 -10 10 -5 0
-10 -4 -10 -10z"/>
<path d="M4090 3170 c0 -5 5 -10 11 -10 5 0 7 5 4 10 -3 6 -8 10 -11 10 -2 0
-4 -4 -4 -10z"/>
<path d="M4004 3153 c4 -4 21 -8 37 -9 17 -1 28 1 25 3 -3 3 -20 7 -37 9 -18
2 -29 1 -25 -3z"/>
<path d="M4028 3123 c6 -2 18 -2 25 0 6 3 1 5 -13 5 -14 0 -19 -2 -12 -5z"/>
<path d="M4055 3081 c-6 -11 13 -26 22 -17 3 3 13 0 22 -7 14 -10 14 -10 3 5
-8 10 -20 14 -29 11 -11 -4 -14 -2 -9 5 4 7 5 12 2 12 -3 0 -7 -4 -11 -9z"/>
<path d="M4125 3070 c-3 -6 1 -7 9 -4 18 7 21 14 7 14 -6 0 -13 -4 -16 -10z"/>
<path d="M4136 2928 c3 -4 11 -5 19 -1 21 7 19 12 -4 10 -11 0 -18 -5 -15 -9z"/>
<path d="M255 1570 c3 -5 8 -10 11 -10 2 0 4 5 4 10 0 6 -5 10 -11 10 -5 0 -7
-4 -4 -10z"/>
<path d="M289 1553 c-8 -9 -9 -14 -2 -10 6 4 13 1 16 -5 3 -7 4 -3 4 10 -1 26
-1 26 -18 5z"/>
<path d="M256 1532 c-3 -4 4 -9 15 -9 23 -2 25 3 4 10 -8 4 -16 3 -19 -1z"/>
<path d="M304 1508 c-4 -6 -3 -8 4 -4 6 3 13 2 17 -4 3 -5 1 -10 -6 -10 -7 0
-10 -3 -6 -6 10 -11 26 6 20 21 -6 18 -19 19 -29 3z"/>
<path d="M279 1498 c-7 -24 -4 -40 9 -50 15 -11 15 -11 6 2 -6 8 -10 23 -9 33
3 13 -2 26 -6 15z"/>
<path d="M315 1440 c-4 -6 -4 -14 -1 -17 3 -4 6 -1 6 5 0 7 5 12 11 12 5 0 7
-4 4 -10 -3 -5 -1 -10 5 -10 14 0 8 22 -7 27 -6 2 -14 -1 -18 -7z"/>
<path d="M273 1425 c0 -8 4 -12 9 -9 5 3 6 10 3 15 -9 13 -12 11 -12 -6z"/>
<path d="M289 1393 c-13 -16 -12 -17 4 -4 9 7 17 15 17 17 0 8 -8 3 -21 -13z"/>
<path d="M310 1356 c0 -2 9 -6 20 -9 11 -3 18 -1 14 4 -5 9 -34 13 -34 5z"/>
<path d="M310 1336 c0 -2 7 -7 16 -10 8 -3 12 -2 9 4 -6 10 -25 14 -25 6z"/>
<path d="M350 1296 c0 -2 7 -7 16 -10 8 -3 12 -2 9 4 -6 10 -25 14 -25 6z"/>
<path d="M355 1250 c3 -5 8 -10 11 -10 2 0 4 5 4 10 0 6 -5 10 -11 10 -5 0 -7
-4 -4 -10z"/>
<path d="M335 1230 c-3 -5 -1 -10 4 -10 6 0 11 5 11 10 0 6 -2 10 -4 10 -3 0
-8 -4 -11 -10z"/>
<path d="M375 1219 c-4 -6 -5 -12 -2 -15 2 -3 7 2 10 11 7 17 1 20 -8 4z"/>
<path d="M459 1203 c-1 -4 -1 -11 0 -15 2 -12 -17 -10 -24 2 -3 6 -11 10 -18
10 -6 0 -1 -7 12 -16 20 -15 25 -15 38 -1 10 10 11 17 4 21 -6 4 -12 4 -12 -1z"/>
<path d="M394 1164 c1 -7 6 -17 10 -21 4 -4 6 -1 4 7 -2 9 3 14 12 12 8 -2 11
0 7 4 -13 14 -35 12 -33 -2z"/>
<path d="M434 1115 c1 -8 8 -21 16 -28 12 -10 12 -9 2 4 -6 9 -9 18 -6 21 3 3
1 9 -4 12 -6 3 -9 -1 -8 -9z"/>
<path d="M476 1093 c-6 -14 -5 -15 5 -6 7 7 10 15 7 18 -3 3 -9 -2 -12 -12z"/>
<path d="M486 1072 c-3 -5 1 -9 9 -9 8 0 15 4 15 9 0 4 -4 8 -9 8 -6 0 -12 -4
-15 -8z"/>
<path d="M433 1055 c0 -8 4 -12 9 -9 5 3 6 10 3 15 -9 13 -12 11 -12 -6z"/>
<path d="M450 1009 c0 -5 5 -7 10 -4 6 3 10 8 10 11 0 2 -4 4 -10 4 -5 0 -10
-5 -10 -11z"/>
<path d="M510 1010 c0 -5 5 -10 11 -10 5 0 7 5 4 10 -3 6 -8 10 -11 10 -2 0
-4 -4 -4 -10z"/>
<path d="M548 1003 c7 -3 16 -2 19 1 4 3 -2 6 -13 5 -11 0 -14 -3 -6 -6z"/>
<path d="M490 976 c0 -2 7 -7 16 -10 8 -3 12 -2 9 4 -6 10 -25 14 -25 6z"/>
<path d="M530 970 c0 -5 5 -10 11 -10 5 0 7 5 4 10 -3 6 -8 10 -11 10 -2 0 -4
-4 -4 -10z"/>
<path d="M586 927 c3 -10 9 -15 12 -12 3 3 0 11 -7 18 -10 9 -11 8 -5 -6z"/>
<path d="M615 930 c-3 -5 -2 -10 4 -10 5 0 13 5 16 10 3 6 2 10 -4 10 -5 0
-13 -4 -16 -10z"/>
<path d="M570 911 c0 -6 4 -13 10 -16 6 -3 7 1 4 9 -7 18 -14 21 -14 7z"/>
<path d="M708 852 c9 -10 19 -17 21 -16 6 5 -20 34 -30 34 -5 0 -1 -8 9 -18z"/>
<path d="M676 835 c-3 -8 -1 -15 4 -15 6 0 10 7 10 15 0 8 -2 15 -4 15 -2 0
-6 -7 -10 -15z"/>
<path d="M700 810 c-9 -6 -10 -10 -3 -10 6 0 15 5 18 10 8 12 4 12 -15 0z"/>
<path d="M736 807 c3 -10 9 -15 12 -12 3 3 0 11 -7 18 -10 9 -11 8 -5 -6z"/>
<path d="M715 790 c-3 -5 -1 -10 4 -10 6 0 11 5 11 10 0 6 -2 10 -4 10 -3 0
-8 -4 -11 -10z"/>
</g>
</svg>
